<svg width="22" height="20" viewBox="0 0 22 20" fill="none" xmlns="http://www.w3.org/2000/svg">
<mask id="path-1-inside-1" fill="white">
<path fill-rule="evenodd" clip-rule="evenodd" d="M21.5392 1.9936C21.5392 0.892565 20.6466 0 19.5456 0H2.54829C1.44725 0 0.554688 0.892564 0.554688 1.9936V15.002C0.554688 15.6741 0.893328 16.3009 1.45544 16.6694L6.01191 19.6558C6.33665 19.8687 6.71648 19.982 7.10476 19.982H19.5456C20.6466 19.982 21.5392 19.0895 21.5392 17.9884V1.9936Z"/>
</mask>
<path d="M1.45544 16.6694L2.00186 15.8357L1.45544 16.6694ZM2.54829 0.9968H19.5456V-0.9968H2.54829V0.9968ZM1.55149 15.002V1.9936H-0.442112V15.002H1.55149ZM0.909016 17.503L5.46549 20.4895L6.55833 18.8221L2.00186 15.8357L0.909016 17.503ZM19.5456 18.9852H7.10476V20.9788H19.5456V18.9852ZM20.5424 1.9936V17.9884H22.536V1.9936H20.5424ZM19.5456 20.9788C21.1971 20.9788 22.536 19.64 22.536 17.9884H20.5424C20.5424 18.539 20.0961 18.9852 19.5456 18.9852V20.9788ZM5.46549 20.4895C5.9526 20.8088 6.52234 20.9788 7.10476 20.9788V18.9852C6.91062 18.9852 6.72071 18.9285 6.55833 18.8221L5.46549 20.4895ZM-0.442112 15.002C-0.442112 16.0101 0.065849 16.9504 0.909016 17.503L2.00186 15.8357C1.72081 15.6515 1.55149 15.338 1.55149 15.002H-0.442112ZM19.5456 0.9968C20.0961 0.9968 20.5424 1.44308 20.5424 1.9936H22.536C22.536 0.342049 21.1971 -0.9968 19.5456 -0.9968V0.9968ZM2.54829 -0.9968C0.896736 -0.9968 -0.442112 0.342046 -0.442112 1.9936H1.55149C1.55149 1.44308 1.99777 0.9968 2.54829 0.9968V-0.9968Z" fill="#FDD32F" mask="url(#path-1-inside-1)"/>
<path d="M11.5453 5.82971C11.5453 5.55445 11.3221 5.33131 11.0469 5.33131C10.7716 5.33131 10.5485 5.55445 10.5485 5.82971L11.5453 5.82971ZM10.6945 11.3905C10.8891 11.5851 11.2047 11.5851 11.3993 11.3905L14.5711 8.21871C14.7657 8.02407 14.7657 7.7085 14.5711 7.51387C14.3765 7.31923 14.0609 7.31923 13.8663 7.51387L11.0469 10.3332L8.2275 7.51387C8.03286 7.31923 7.71729 7.31923 7.52266 7.51387C7.32802 7.7085 7.32802 8.02407 7.52266 8.21871L10.6945 11.3905ZM10.5485 5.82971L10.5485 11.0381L11.5453 11.0381L11.5453 5.82971L10.5485 5.82971Z" fill="#FDD32F"/>
<path d="M7.55322 12.1855L14.5405 12.1855" stroke="#FDD32F" stroke-width="0.9968" stroke-linecap="round" stroke-linejoin="round"/>
</svg>
