<svg width="309" height="28" viewBox="0 0 309 28" fill="none" xmlns="http://www.w3.org/2000/svg">
<path d="M162 16.7123C162 22.3935 157.397 26.9951 151.723 26.9951H150.048V3.00488H162V16.7123Z" fill="white"/>
<path d="M42.9937 4.19922L51.3599 26.9992H34.6982L42.9937 4.19922Z" fill="white"/>
<path d="M64.4049 26.9999H52.5896L43.7856 3.00977H55.6009L64.4049 26.9999Z" fill="white"/>
<path d="M126.281 3.00977L117.477 26.9999H105.012V3.00977H126.281Z" fill="white"/>
<path d="M123.556 13.8057L128.252 26.9998H118.723L123.556 13.8057Z" fill="white"/>
<path d="M136.871 3.00977H148.823V26.9999H147.147C141.469 26.9999 136.871 22.3939 136.871 16.7127V3.00977V3.00977Z" fill="white"/>
<path d="M86.4715 26.9999H74.6562L83.4602 3.00977H95.2755L86.4715 26.9999Z" fill="white"/>
<path d="M76.5001 18.6021L70.5703 3.00977H82.2131L76.5001 18.6021Z" fill="white"/>
<path d="M23.9754 26.9999H0V3.00977L23.9754 26.9999Z" fill="white"/>
<path d="M23.9738 25.1991V3.00977L12.8086 14.1067L23.9738 25.1991Z" fill="white"/>
<path d="M180.368 27H182.992V16.344H192.336V13.976H182.992V5.656H192.4V3.32H180.368V27ZM194.217 18.392C194.217 23.224 197.801 27.448 203.337 27.448C208.905 27.448 212.489 23.224 212.489 18.392C212.489 13.56 208.905 9.304 203.337 9.304C197.801 9.304 194.217 13.56 194.217 18.36V18.392ZM196.553 18.392C196.553 14.456 199.529 11.512 203.337 11.512C207.177 11.512 210.121 14.456 210.121 18.392C210.121 22.328 207.177 25.272 203.337 25.272C199.529 25.272 196.553 22.328 196.553 18.424V18.392ZM216.054 27H218.39V17.624C218.39 13.72 220.246 11.64 223.574 11.64H223.798V9.304C221.782 9.368 219.542 10.04 218.294 12.6V9.784H216.054V27ZM226.367 27H228.735V17.4C228.735 15.576 229.151 14.264 229.887 13.272C230.591 12.248 231.935 11.448 233.535 11.512C235.295 11.544 236.511 12.216 237.311 13.336C237.983 14.392 238.271 15.512 238.207 17.432V27H240.575V17.432C240.575 15.48 240.735 14.52 241.599 13.304C242.399 12.12 243.871 11.512 245.375 11.512C247.007 11.512 248.095 12.056 248.799 12.952C249.791 14.072 250.079 15.704 250.079 17.528V27H252.447V17.432C252.447 14.392 251.999 12.536 250.495 11.032C249.311 9.816 247.615 9.304 245.855 9.304C243.935 9.304 242.239 10.04 241.119 11.224C240.479 11.896 240.127 12.568 239.871 13.048C239.775 12.856 239.199 11.704 238.751 11.256C237.535 9.88 235.839 9.304 234.047 9.304C232.095 9.304 229.695 10.328 228.607 12.504V9.784H226.367V27ZM257.024 27H263.552C265.888 27 267.232 26.808 268.64 25.944C270.656 24.888 271.84 22.968 271.872 20.408C271.872 19.32 271.584 15.704 267.328 14.392C268.928 13.56 270.496 12.152 270.496 9.368C270.496 7.512 269.856 5.528 267.936 4.44C266.88 3.704 265.408 3.32 263.264 3.32H257.024V27ZM259.648 5.656H263.072C264.608 5.688 265.408 5.88 266.016 6.2C267.008 6.648 267.936 7.832 267.936 9.56C267.936 11 267.52 12.248 266.016 13.08C265.28 13.432 264.32 13.56 263.232 13.56H259.648V5.656ZM259.648 15.8H263.456C264.928 15.8 265.728 15.832 266.784 16.28C268.288 16.952 269.312 18.36 269.312 20.28C269.28 22.392 268.224 23.608 266.816 24.216C265.952 24.568 264.896 24.664 263.936 24.664H259.648V15.8ZM274.311 18.392C274.311 23.224 277.895 27.448 283.431 27.448C288.999 27.448 292.583 23.224 292.583 18.392C292.583 13.56 288.999 9.304 283.431 9.304C277.895 9.304 274.311 13.56 274.311 18.36V18.392ZM276.647 18.392C276.647 14.456 279.623 11.512 283.431 11.512C287.271 11.512 290.215 14.456 290.215 18.392C290.215 22.328 287.271 25.272 283.431 25.272C279.623 25.272 276.647 22.328 276.647 18.424V18.392ZM293.193 27H296.073L300.649 20.056L305.257 27H308.137L302.089 18.168L307.817 9.784H305.001L300.649 16.408L296.329 9.784H293.449L299.209 18.168L293.193 27Z" fill="white"/>
</svg>
