<svg width="342" height="25" viewBox="0 0 342 25" fill="none" xmlns="http://www.w3.org/2000/svg">
<path d="M207 24.5398V6.37905H206.946L193.955 24.5666H191.411V6.37905H191.357L178.366 24.5666H174L191.277 0.995117H194.839V17.3344H194.893L206.866 0.995117H210.429V24.5398H207Z" fill="white"/>
<path d="M228.536 22.9862C227.036 24.3255 225.027 24.9951 223.018 24.9951C221.009 24.9951 219 24.3255 217.5 22.9862C215.759 21.4326 215.116 19.2362 215.116 16.9326V0.995117H218.545V16.8523C218.545 19.6648 220.072 21.8612 222.991 21.8612C225.911 21.8612 227.438 19.6648 227.438 16.8523V0.995117H230.866V16.9326C230.92 19.2362 230.277 21.4326 228.536 22.9862Z" fill="white"/>
<path d="M235.769 24.5398V0.995117H239.198V21.4058H247.394V24.5665H235.769V24.5398Z" fill="white"/>
<path d="M254.116 4.15583V24.5665H250.687V4.15583H246.16V0.995117H258.642V4.15583H254.116Z" fill="white"/>
<path d="M261.269 24.5398V0.995117H264.697V24.5398H261.269Z" fill="white"/>
<path d="M276.215 15.2451H272.84V24.5398H269.411V0.995117H276.215C280.876 0.995117 284.518 3.0844 284.518 8.12011C284.518 13.1558 280.876 15.2451 276.215 15.2451ZM276.215 4.15583H272.84V12.1112H276.215C278.813 12.1112 281.09 11.0398 281.09 8.12011C281.09 5.20047 278.84 4.15583 276.215 4.15583Z" fill="white"/>
<path d="M287.385 24.5398V0.995117H290.813V21.4058H298.983V24.5665H287.385V24.5398Z" fill="white"/>
<path d="M301.394 24.5398V0.995117H304.822V24.5398H301.394Z" fill="white"/>
<path d="M309.241 24.5398V0.995117H321.937V4.15583H312.67V11.0933H321.937V14.254H312.67V21.4058H321.937V24.5665H309.241V24.5398Z" fill="white"/>
<path d="M337.072 15.3255C336.376 15.5933 335.545 15.7808 334.768 15.7808L341.358 24.5665H337.072L329.304 13.638H329.251V24.5665H325.822V0.995117H333.108C335.331 0.995117 337.715 1.34333 339.376 2.97726C340.876 4.3969 341.545 6.51297 341.545 8.54869C341.518 11.7362 340.126 14.2273 337.072 15.3255ZM332.867 4.15583H329.251V13.1558H331.608C334.661 13.1558 338.09 12.2987 338.09 8.54869C338.09 5.54869 335.599 4.15583 332.867 4.15583Z" fill="white"/>
<path d="M162 14.7103C162 20.3927 157.397 24.9953 151.723 24.9953H150.048V1H162V14.7103Z" fill="white"/>
<path d="M42.9938 2.19482L51.36 24.9996H34.6984L42.9938 2.19482Z" fill="white"/>
<path d="M64.4047 24.9997H52.5895L43.7855 1.00439H55.6008L64.4047 24.9997Z" fill="white"/>
<path d="M126.28 1.00439L117.476 24.9997H105.011V1.00439H126.28Z" fill="white"/>
<path d="M123.556 11.8027L128.252 24.9997H118.723L123.556 11.8027Z" fill="white"/>
<path d="M136.871 1.00439H148.823V24.9997H147.147C141.469 24.9997 136.871 20.3927 136.871 14.7103V1.00439Z" fill="white"/>
<path d="M86.4698 24.9997H74.6545L83.4585 1.00439H95.2738L86.4698 24.9997Z" fill="white"/>
<path d="M76.4987 16.6L70.569 1.00439H82.2118L76.4987 16.6Z" fill="white"/>
<path d="M23.9754 25.0001H0V1.00488L23.9754 25.0001Z" fill="white"/>
<path d="M23.9749 23.1985V1.00439L12.8097 12.1036L23.9749 23.1985Z" fill="white"/>
</svg>
