<svg width="342" height="24" viewBox="0 0 342 24" fill="none" xmlns="http://www.w3.org/2000/svg">
<path d="M207 23.5397V5.38279H206.946L193.955 23.5664H191.411V5.38279H191.357L178.366 23.5664H174L191.277 0H194.839V16.3358H194.893L206.866 0H210.429V23.5397H207Z" fill="white"/>
<path d="M228.536 21.9864C227.036 23.3254 225.027 23.9949 223.018 23.9949C221.009 23.9949 219 23.3254 217.5 21.9864C215.759 20.4332 215.116 18.2372 215.116 15.9341V0H218.545V15.8538C218.545 18.6657 220.072 20.8616 222.991 20.8616C225.911 20.8616 227.438 18.6657 227.438 15.8538V0H230.866V15.9341C230.92 18.2372 230.277 20.4332 228.536 21.9864Z" fill="white"/>
<path d="M235.769 23.5396V0H239.198V20.4064H247.394V23.5664H235.769V23.5396Z" fill="white"/>
<path d="M254.116 3.16004V23.5664H250.687V3.16004H246.16V0H258.642V3.16004H254.116Z" fill="white"/>
<path d="M261.269 23.5396V0H264.697V23.5396H261.269Z" fill="white"/>
<path d="M276.214 14.247H272.839V23.5396H269.41V0H276.214C280.874 0 284.517 2.08884 284.517 7.12349C284.517 12.1581 280.874 14.247 276.214 14.247ZM276.214 3.16004H272.839V11.1137H276.214C278.812 11.1137 281.089 10.0425 281.089 7.12349C281.089 4.20446 278.839 3.16004 276.214 3.16004Z" fill="white"/>
<path d="M287.383 23.5396V0H290.811V20.4064H298.981V23.5664H287.383V23.5396Z" fill="white"/>
<path d="M301.394 23.5396V0H304.822V23.5396H301.394Z" fill="white"/>
<path d="M309.242 23.5396V0H321.939V3.16004H312.671V10.0961H321.939V13.2561H312.671V20.4064H321.939V23.5664H309.242V23.5396Z" fill="white"/>
<path d="M337.07 14.3273C336.374 14.5951 335.544 14.7826 334.767 14.7826L341.356 23.5664H337.07L329.302 12.6402H329.249V23.5664H325.82V0H333.106C335.329 0 337.713 0.34814 339.374 1.98172C340.874 3.40106 341.544 5.51669 341.544 7.55197C341.517 10.7388 340.124 13.2293 337.07 14.3273ZM332.865 3.16004H329.249V12.1581H331.606C334.66 12.1581 338.088 11.3012 338.088 7.55197C338.088 4.55261 335.597 3.16004 332.865 3.16004Z" fill="white"/>
<path d="M162 13.7123C162 19.3935 157.397 23.9951 151.723 23.9951H150.048V0.00488281H162V13.7123Z" fill="white"/>
<path d="M42.9937 1.19922L51.3599 23.9992H34.6982L42.9937 1.19922Z" fill="white"/>
<path d="M64.4047 23.9999H52.5895L43.7855 0.00976562H55.6008L64.4047 23.9999Z" fill="white"/>
<path d="M126.281 0.00976562L117.477 23.9999H105.012V0.00976562H126.281Z" fill="white"/>
<path d="M123.556 10.8057L128.252 23.9998H118.723L123.556 10.8057Z" fill="white"/>
<path d="M136.871 0.00976562H148.823V23.9999H147.147C141.469 23.9999 136.871 19.3939 136.871 13.7127V0.00976562V0.00976562Z" fill="white"/>
<path d="M86.4715 23.9999H74.6562L83.4602 0.00976562H95.2755L86.4715 23.9999Z" fill="white"/>
<path d="M76.5001 15.6021L70.5703 0.00976562H82.2131L76.5001 15.6021Z" fill="white"/>
<path d="M23.9754 23.9999H0V0.00976562L23.9754 23.9999Z" fill="white"/>
<path d="M23.9738 22.1991V0.00976562L12.8086 11.1067L23.9738 22.1991Z" fill="white"/>
</svg>
