<svg id="logo1" xmlns="http://www.w3.org/2000/svg" width="162" height="24" viewBox="0 0 162 24">
  <path id="Path_1" data-name="Path 1" d="M162,13.71A10.281,10.281,0,0,1,151.723,24h-1.675V0H162Z" fill="#fff"/>
  <path id="Path_2" data-name="Path 2" d="M42.994,1.195,51.36,24H34.7Z" fill="#fff"/>
  <path id="Path_3" data-name="Path 3" d="M64.4,24H52.59l-8.8-24H55.6Z" fill="#fff"/>
  <path id="Path_4" data-name="Path 4" d="M126.28,0l-8.8,24H105.011V0Z" fill="#fff"/>
  <path id="Path_5" data-name="Path 5" d="M123.556,10.8l4.7,13.2h-9.529Z" fill="#fff"/>
  <path id="Path_6" data-name="Path 6" d="M136.871,0h11.952V24h-1.676A10.281,10.281,0,0,1,136.871,13.71Z" fill="#fff"/>
  <path id="Path_7" data-name="Path 7" d="M86.47,24H74.655l8.8-24H95.274Z" fill="#fff"/>
  <path id="Path_8" data-name="Path 8" d="M76.5,15.6,70.569,0H82.212Z" fill="#fff"/>
  <path id="Path_9" data-name="Path 9" d="M23.975,24H0V0Z" fill="#fff"/>
  <path id="Path_10" data-name="Path 10" d="M23.975,22.2V0L12.81,11.1Z" fill="#fff"/>
</svg>
