<svg width="24" height="24" viewBox="0 0 24 24" fill="none" xmlns="http://www.w3.org/2000/svg">
<path fill-rule="evenodd" clip-rule="evenodd" d="M12 24C18.6275 24 24 18.6275 24 12C24 5.37258 18.6275 0 12 0C5.37258 0 0 5.37258 0 12C0 18.6275 5.37258 24 12 24ZM12 13.575L19.1625 7.44375C19.05 7.36875 18.9 7.3125 18.75 7.3125H5.25001C5.10001 7.3125 4.95001 7.36875 4.83751 7.44375L12 13.575ZM4.5 8.15625L11.5125 14.1375C11.7938 14.3813 12.2062 14.3813 12.4875 14.1375L19.5 8.1375V15.9375C19.5 16.35 19.1625 16.6875 18.75 16.6875H5.25C4.8375 16.6875 4.5 16.35 4.5 15.9375V8.15625Z" fill="#FDD32F"/>
</svg>
