<svg width="149" height="202" viewBox="0 0 149 202" fill="none" xmlns="http://www.w3.org/2000/svg">
<path d="M9.84229 106.878H20.6394C20.6394 106.878 42.1792 119.212 67.5456 119.212C92.9119 119.212 114.368 106.878 114.368 106.878H124.19" stroke="#FF4D00" stroke-width="2" stroke-miterlimit="10" stroke-linecap="round" stroke-linejoin="round"/>
<path d="M83.4375 151.084H50.5981L54.6172 137.419C54.747 136.975 55.1531 136.674 55.6136 136.674H78.4178C78.8783 136.674 79.2844 136.979 79.4142 137.419L83.4375 151.084Z" fill="black" stroke="white" stroke-width="2" stroke-miterlimit="10" stroke-linecap="round" stroke-linejoin="round"/>
<path d="M6.22063 165.037C6.22063 164.895 6.1034 164.778 5.96106 164.778H1.12978L1 164.648V156.425L1.12978 156.296H5.96106C6.1034 156.296 6.22063 156.178 6.22063 156.036" fill="black"/>
<path d="M6.22063 165.037C6.22063 164.895 6.1034 164.778 5.96106 164.778H1.12978L1 164.648V156.425L1.12978 156.296H5.96106C6.1034 156.296 6.22063 156.178 6.22063 156.036" stroke="white" stroke-width="2" stroke-miterlimit="10" stroke-linecap="round" stroke-linejoin="round"/>
<path d="M1.78296 164.778V156.292" stroke="white" stroke-width="2" stroke-miterlimit="10" stroke-linecap="round" stroke-linejoin="round"/>
<path d="M134.153 96.4785V115.799H133.609C133.538 115.799 133.475 115.77 133.425 115.724L120.618 103.005H127.626C131.231 103.005 134.153 100.087 134.153 96.4785Z" fill="black" stroke="white" stroke-width="2" stroke-miterlimit="10" stroke-linecap="round" stroke-linejoin="round"/>
<path d="M147.207 97.8767V166.804L146.943 167.064H6.47978C6.33744 167.064 6.22021 166.951 6.22021 166.804V154.27C6.22021 154.127 6.33325 154.01 6.47978 154.01H127.626C129.426 154.01 131.063 153.277 132.24 152.097C133.424 150.912 134.153 149.279 134.153 147.479V91.3457H140.684C142.484 91.3457 144.113 92.0783 145.298 93.259C146.474 94.4396 147.207 96.0723 147.207 97.8767Z" fill="black" stroke="white" stroke-width="2" stroke-miterlimit="10" stroke-linecap="round" stroke-linejoin="round"/>
<path d="M6.22063 100.984C6.22063 100.841 6.1034 100.724 5.96106 100.724H1.12978L1 100.594V92.3718L1.12978 92.242H5.96106C6.1034 92.242 6.22063 92.1248 6.22063 91.9824" fill="black"/>
<path d="M6.22063 100.984C6.22063 100.841 6.1034 100.724 5.96106 100.724H1.12978L1 100.594V92.3718L1.12978 92.242H5.96106C6.1034 92.242 6.22063 92.1248 6.22063 91.9824" stroke="white" stroke-width="2" stroke-miterlimit="10" stroke-linecap="round" stroke-linejoin="round"/>
<path d="M147.207 167.323V189.252C147.207 192.857 144.284 195.784 140.68 195.784H41.1026C39.6456 195.784 38.2348 195.294 37.0877 194.402L6.52165 170.56C6.33325 170.413 6.22021 170.183 6.22021 169.944V167.323C6.22021 167.181 6.33325 167.06 6.47978 167.06H146.943C147.085 167.06 147.207 167.181 147.207 167.323Z" fill="black" stroke="white" stroke-width="2" stroke-miterlimit="10" stroke-linecap="round" stroke-linejoin="round"/>
<path d="M146.947 167.059C147.089 167.059 147.207 166.942 147.207 166.8L146.947 167.059Z" fill="black"/>
<path d="M146.947 167.059C147.089 167.059 147.207 166.942 147.207 166.8" stroke="white" stroke-width="2" stroke-miterlimit="10" stroke-linecap="round" stroke-linejoin="round"/>
<path d="M61.985 195.779H43.7107V197.086H61.985V195.779Z" fill="black" stroke="white" stroke-width="2" stroke-miterlimit="10" stroke-linecap="round" stroke-linejoin="round"/>
<path d="M63.2964 197.085H42.4097V201H63.2964V197.085Z" fill="black" stroke="white" stroke-width="2" stroke-miterlimit="10" stroke-linecap="round" stroke-linejoin="round"/>
<path d="M138.067 195.779H119.793V197.086H138.067V195.779Z" fill="black" stroke="white" stroke-width="2" stroke-miterlimit="10" stroke-linecap="round" stroke-linejoin="round"/>
<path d="M139.374 197.085H118.487V201H139.374V197.085Z" fill="black" stroke="white" stroke-width="2" stroke-miterlimit="10" stroke-linecap="round" stroke-linejoin="round"/>
<path d="M134.153 40.6048V96.4785C134.153 100.083 131.235 103.005 127.626 103.005H6.47978C6.33744 103.005 6.22021 102.892 6.22021 102.742V66.8294C6.22021 66.5907 6.32488 66.3646 6.51327 66.2181L37.0625 41.7728C38.218 40.8476 39.6582 40.3452 41.1402 40.3452H133.889C134.036 40.3494 134.153 40.4624 134.153 40.6048Z" fill="black" stroke="white" stroke-width="2" stroke-miterlimit="10" stroke-linecap="round" stroke-linejoin="round"/>
<path d="M1.78296 100.723V92.2373" stroke="white" stroke-width="2" stroke-miterlimit="10" stroke-linecap="round" stroke-linejoin="round"/>
<path d="M96.0213 49.7188C97.0721 50.2588 97.4907 51.5483 96.9507 52.5991C96.4106 53.6499 95.1212 54.0686 94.0703 53.5285C94.0703 53.5285 89.7247 51.1882 84.4957 50.0286C79.5095 48.9233 75.4067 49.0154 75.4067 49.0154C74.226 49.0154 73.2673 48.0567 73.2673 46.8761C73.2673 45.6955 74.226 44.7368 75.4067 44.7368C75.4067 44.7368 79.9993 44.5777 85.9945 46.0011C91.3574 47.278 96.0213 49.7188 96.0213 49.7188Z" fill="black" stroke="white" stroke-width="2" stroke-miterlimit="10" stroke-linecap="round" stroke-linejoin="round"/>
<path d="M99.9743 51.4518C99.9743 51.9165 99.9157 52.3686 99.7985 52.7957C99.317 54.5959 97.8936 56.0068 96.0808 56.4715C95.6705 56.5761 95.2393 56.6306 94.7914 56.6306C91.9319 56.6306 89.6084 54.3154 89.6084 51.4476C89.6084 50.9787 89.667 50.5266 89.7842 50.0995C90.2741 48.3035 91.6975 46.8926 93.5019 46.4279C93.9164 46.3233 94.3434 46.2646 94.7914 46.2646C97.6591 46.2688 99.9743 48.5924 99.9743 51.4518Z" fill="black" stroke="white" stroke-width="2" stroke-miterlimit="10" stroke-linecap="round" stroke-linejoin="round"/>
<path d="M90.7688 51.4523C90.7688 49.225 92.5732 47.4248 94.7963 47.4248C97.0193 47.4248 98.8237 49.2292 98.8237 51.4523C98.8237 53.6795 97.0193 55.4839 94.7963 55.4839C92.5732 55.4839 90.7688 53.6795 90.7688 51.4523Z" fill="black"/>
<path d="M93.0701 51.4524C93.0701 50.4979 93.8446 49.7275 94.7949 49.7275C95.7453 49.7275 96.5198 50.5021 96.5198 51.4524C96.5198 52.4027 95.7453 53.1773 94.7949 53.1773C93.8446 53.1773 93.0701 52.4069 93.0701 51.4524Z" fill="black"/>
<path d="M145.864 97.8768C145.864 100.736 143.545 103.06 140.681 103.06C137.817 103.06 135.498 100.74 135.498 97.8768C135.498 97.4121 135.557 96.9599 135.674 96.5329C136.16 94.7327 137.579 93.3218 139.387 92.8571C139.802 92.7525 140.233 92.6938 140.681 92.6938C143.54 92.6938 145.864 95.0132 145.864 97.8768Z" fill="black" stroke="white" stroke-width="2" stroke-miterlimit="10" stroke-linecap="round" stroke-linejoin="round"/>
<path d="M136.648 97.8727C136.648 95.6454 138.453 93.8452 140.676 93.8452C142.903 93.8452 144.703 95.6496 144.703 97.8727C144.703 100.1 142.899 101.9 140.676 101.9C138.453 101.904 136.648 100.1 136.648 97.8727Z" fill="black"/>
<path d="M138.951 97.8723C138.951 96.9178 139.726 96.1475 140.676 96.1475C141.631 96.1475 142.401 96.922 142.401 97.8723C142.401 98.8268 141.627 99.5972 140.676 99.5972C139.726 99.6014 138.951 98.8268 138.951 97.8723Z" fill="black"/>
<path d="M95.2565 50.6567H94.3397L93.8792 51.4522L94.3397 52.2476H95.2565L95.7129 51.4522L95.2565 50.6567Z" fill="black"/>
<path d="M141.137 97.0811H140.22L139.764 97.8723L140.22 98.6677H141.137L141.597 97.8723L141.137 97.0811Z" fill="black"/>
<path d="M52.9432 5.03165C52.9432 5.15306 52.939 5.2661 52.9264 5.38332C52.759 7.34682 51.1848 8.90421 49.2129 9.05074C49.1166 9.05912 49.0162 9.0633 48.9115 9.0633C46.6884 9.0633 44.884 7.2589 44.884 5.03584C44.884 2.81278 46.6884 1 48.9157 1C51.1388 1 52.9432 2.8044 52.9432 5.03165Z" fill="black" stroke="white" stroke-width="2" stroke-miterlimit="10" stroke-linecap="round" stroke-linejoin="round"/>
<path d="M46.324 5.02751C46.324 3.59571 47.4837 2.43604 48.9155 2.43604C50.3473 2.43604 51.5069 3.59571 51.5069 5.02751C51.5069 6.45931 50.3473 7.61899 48.9155 7.61899C47.4837 7.61899 46.324 6.45931 46.324 5.02751Z" fill="black"/>
<path d="M93.5059 46.4324C91.7015 46.8972 90.2781 48.308 89.7882 50.1041L49.2122 9.05072C51.184 8.90838 52.7582 7.34679 52.9256 5.3833L93.5059 46.4324Z" fill="black" stroke="white" stroke-width="2" stroke-miterlimit="10" stroke-linecap="round" stroke-linejoin="round"/>
<path d="M139.386 92.857C137.582 93.3217 136.158 94.7326 135.673 96.5328L96.0806 56.4717C97.8892 56.007 99.3126 54.5961 99.7982 52.7959L139.386 92.857Z" fill="black" stroke="white" stroke-width="2" stroke-miterlimit="10" stroke-linecap="round" stroke-linejoin="round"/>
<path d="M47.1853 5.02759C47.1853 4.07306 47.9598 3.30273 48.9102 3.30273C49.8647 3.30273 50.635 4.07725 50.635 5.02759C50.635 5.97794 49.8605 6.75245 48.9102 6.75245C47.9598 6.75664 47.1853 5.98213 47.1853 5.02759Z" fill="black"/>
<path d="M49.371 4.23633H48.4541L47.9978 5.02759L48.4541 5.82303H49.371L49.8315 5.02759L49.371 4.23633Z" fill="black"/>
<path d="M10.1528 97.8725C10.1528 61.55 24.99 28.6897 48.9329 5.02734" stroke="#FFD108" stroke-width="2" stroke-miterlimit="10" stroke-linecap="round" stroke-linejoin="round"/>
</svg>
