<svg width="178" height="200" viewBox="0 0 178 200" fill="none" xmlns="http://www.w3.org/2000/svg">
<g clip-path="url(#clip0)">
<path d="M171.162 83.0859L171.374 83.209" stroke="white" stroke-width="2" stroke-miterlimit="10" stroke-linecap="round" stroke-linejoin="round"/>
<path d="M171.163 83.086C170.413 82.7053 169.483 82.6707 168.656 83.1552L164.411 85.6086L164.407 79.1943L171.163 83.086Z" fill="black" stroke="white" stroke-width="2" stroke-miterlimit="10" stroke-linecap="round" stroke-linejoin="round"/>
<path d="M172.604 85.4316V138.184L81.4163 190.829V181.053L160.006 135.677C162.714 134.112 164.383 131.22 164.41 128.09V85.6085L168.655 83.1473C169.486 82.6667 170.416 82.6974 171.162 83.0781L171.374 83.2012C172.097 83.6549 172.604 84.451 172.604 85.4316Z" fill="black" stroke="white" stroke-width="2" stroke-miterlimit="10" stroke-linecap="round" stroke-linejoin="round"/>
<path d="M29.8215 112.927V112.919" stroke="white" stroke-width="2" stroke-miterlimit="10" stroke-linecap="round" stroke-linejoin="round"/>
<path d="M81.4171 190.836V193.262L0.38501 146.478V144.052L81.4171 190.836Z" fill="black" stroke="white" stroke-width="2" stroke-miterlimit="10" stroke-linecap="round" stroke-linejoin="round"/>
<path d="M34.7406 115.772L6.81851 131.892L1.53481 134.942L0.38501 134.277L33.5908 115.107L34.7406 115.772Z" fill="black" stroke="white" stroke-width="2" stroke-miterlimit="10" stroke-linecap="round" stroke-linejoin="round"/>
<path d="M35.105 148.225L29.8213 151.274V156.827C29.8213 157.277 29.6829 157.673 29.4483 157.996C28.6215 158.231 27.7101 158.138 26.9026 157.673L13.9856 150.217L18.854 138.842L35.105 148.225Z" fill="black" stroke="white" stroke-width="2" stroke-miterlimit="10" stroke-linecap="round" stroke-linejoin="round"/>
<path d="M155.5 100.056V127.612L131.639 113.834L155.5 100.056Z" fill="black" stroke="white" stroke-width="2" stroke-miterlimit="10" stroke-linecap="round" stroke-linejoin="round"/>
<path d="M81.4171 181.061V190.836L0.38501 144.052V134.277L1.53481 134.942V139.537C1.53481 142.275 2.9961 144.798 5.36107 146.167L26.8227 158.561C27.7649 159.107 28.8801 158.78 29.4454 158C29.6761 157.677 29.8184 157.281 29.8184 156.831V151.278L81.4171 181.061Z" fill="black" stroke="white" stroke-width="2" stroke-miterlimit="10" stroke-linecap="round" stroke-linejoin="round"/>
<path d="M10.5525 134.05L5.6918 145.402C3.54987 143.902 2.74231 141.076 3.8229 138.645L6.81853 131.889L10.5525 134.05Z" fill="black" stroke="white" stroke-width="2" stroke-miterlimit="10" stroke-linecap="round" stroke-linejoin="round"/>
<path d="M18.8551 138.841L13.9867 150.216L6.11111 145.667C5.96883 145.582 5.82655 145.494 5.6958 145.402L10.5565 134.05L18.8551 138.841Z" fill="black" stroke="white" stroke-width="2" stroke-miterlimit="10" stroke-linecap="round" stroke-linejoin="round"/>
<path d="M172.604 138.191V154.469C172.604 157.442 171.02 160.188 168.443 161.676L162.583 165.06L152.858 170.674L152.254 171.024L113.099 193.628L113.088 193.632L103.643 199.089C103.347 199.258 103.039 199.385 102.716 199.473C102.713 199.473 102.713 199.473 102.713 199.473C101.982 199.673 101.197 199.658 100.467 199.423L81.4163 193.259V190.836L172.604 138.191Z" fill="black" stroke="white" stroke-width="2" stroke-miterlimit="10" stroke-linecap="round" stroke-linejoin="round"/>
<path d="M164.406 79.1938L164.345 79.1592" stroke="white" stroke-width="2" stroke-miterlimit="10" stroke-linecap="round" stroke-linejoin="round"/>
<path d="M33.9175 157.414C34.2656 157.218 34.2752 156.575 33.939 155.977C33.6028 155.379 33.0481 155.053 32.7 155.248C32.352 155.444 32.3424 156.087 32.6786 156.685C33.0148 157.283 33.5695 157.609 33.9175 157.414Z" stroke="white" stroke-width="2" stroke-miterlimit="10" stroke-linecap="round" stroke-linejoin="round"/>
<path d="M37.8545 159.686C38.2026 159.49 38.2122 158.847 37.876 158.249C37.5398 157.651 36.9851 157.325 36.637 157.521C36.289 157.716 36.2794 158.36 36.6156 158.958C36.9518 159.556 37.5065 159.882 37.8545 159.686Z" stroke="white" stroke-width="2" stroke-miterlimit="10" stroke-linecap="round" stroke-linejoin="round"/>
<path d="M41.7891 161.96C42.1372 161.764 42.1468 161.121 41.8105 160.523C41.4743 159.925 40.9197 159.599 40.5716 159.795C40.2236 159.99 40.214 160.634 40.5502 161.232C40.8864 161.83 41.4411 162.156 41.7891 161.96Z" stroke="white" stroke-width="2" stroke-miterlimit="10" stroke-linecap="round" stroke-linejoin="round"/>
<path d="M45.7278 164.232C46.0759 164.036 46.0855 163.393 45.7493 162.795C45.4131 162.197 44.8584 161.871 44.5103 162.067C44.1623 162.262 44.1527 162.906 44.4889 163.504C44.8251 164.102 45.3798 164.428 45.7278 164.232Z" stroke="white" stroke-width="2" stroke-miterlimit="10" stroke-linecap="round" stroke-linejoin="round"/>
<path d="M49.6648 166.504C50.0129 166.308 50.0225 165.665 49.6863 165.067C49.3501 164.469 48.7954 164.143 48.4473 164.339C48.0993 164.534 48.0897 165.178 48.4259 165.776C48.7621 166.374 49.3168 166.7 49.6648 166.504Z" stroke="white" stroke-width="2" stroke-miterlimit="10" stroke-linecap="round" stroke-linejoin="round"/>
<path d="M53.5994 168.778C53.9474 168.582 53.9571 167.939 53.6209 167.341C53.2846 166.743 52.7299 166.417 52.3819 166.612C52.0339 166.808 52.0243 167.452 52.3605 168.05C52.6967 168.648 53.2513 168.974 53.5994 168.778Z" stroke="white" stroke-width="2" stroke-miterlimit="10" stroke-linecap="round" stroke-linejoin="round"/>
<path d="M57.5381 171.05C57.8862 170.855 57.8958 170.211 57.5596 169.613C57.2234 169.015 56.6687 168.689 56.3206 168.885C55.9726 169.081 55.963 169.724 56.2992 170.322C56.6354 170.92 57.1901 171.246 57.5381 171.05Z" stroke="white" stroke-width="2" stroke-miterlimit="10" stroke-linecap="round" stroke-linejoin="round"/>
<path d="M61.4754 173.322C61.8234 173.126 61.833 172.483 61.4968 171.885C61.1606 171.287 60.6059 170.961 60.2579 171.156C59.9098 171.352 59.9002 171.995 60.2364 172.593C60.5726 173.191 61.1273 173.518 61.4754 173.322Z" stroke="white" stroke-width="2" stroke-miterlimit="10" stroke-linecap="round" stroke-linejoin="round"/>
<path d="M33.9163 161.336C34.2644 161.14 34.274 160.497 33.9377 159.899C33.6015 159.301 33.0468 158.975 32.6988 159.171C32.3508 159.366 32.3412 160.01 32.6774 160.608C33.0136 161.206 33.5683 161.532 33.9163 161.336Z" stroke="white" stroke-width="2" stroke-miterlimit="10" stroke-linecap="round" stroke-linejoin="round"/>
<path d="M37.8533 163.609C38.2014 163.413 38.211 162.769 37.8748 162.171C37.5386 161.573 36.9839 161.247 36.6358 161.443C36.2878 161.639 36.2782 162.282 36.6144 162.88C36.9506 163.478 37.5053 163.804 37.8533 163.609Z" stroke="white" stroke-width="2" stroke-miterlimit="10" stroke-linecap="round" stroke-linejoin="round"/>
<path d="M41.7879 165.882C42.1359 165.687 42.1455 165.043 41.8093 164.445C41.4731 163.847 40.9184 163.521 40.5704 163.717C40.2223 163.913 40.2127 164.556 40.5489 165.154C40.8851 165.752 41.4398 166.078 41.7879 165.882Z" stroke="white" stroke-width="2" stroke-miterlimit="10" stroke-linecap="round" stroke-linejoin="round"/>
<path d="M45.7266 168.154C46.0746 167.959 46.0843 167.315 45.748 166.717C45.4118 166.119 44.8571 165.793 44.5091 165.989C44.1611 166.185 44.1515 166.828 44.4877 167.426C44.8239 168.024 45.3785 168.35 45.7266 168.154Z" stroke="white" stroke-width="2" stroke-miterlimit="10" stroke-linecap="round" stroke-linejoin="round"/>
<path d="M49.6638 170.426C50.0119 170.231 50.0215 169.587 49.6853 168.989C49.3491 168.391 48.7944 168.065 48.4464 168.261C48.0983 168.457 48.0887 169.1 48.4249 169.698C48.7611 170.296 49.3158 170.622 49.6638 170.426Z" stroke="white" stroke-width="2" stroke-miterlimit="10" stroke-linecap="round" stroke-linejoin="round"/>
<path d="M53.5982 172.7C53.9462 172.505 53.9558 171.861 53.6196 171.263C53.2834 170.665 52.7287 170.339 52.3807 170.535C52.0326 170.731 52.023 171.374 52.3592 171.972C52.6954 172.57 53.2501 172.896 53.5982 172.7Z" stroke="white" stroke-width="2" stroke-miterlimit="10" stroke-linecap="round" stroke-linejoin="round"/>
<path d="M57.5371 174.972C57.8852 174.777 57.8948 174.133 57.5586 173.535C57.2224 172.937 56.6677 172.611 56.3197 172.807C55.9716 173.002 55.962 173.646 56.2982 174.244C56.6344 174.842 57.1891 175.168 57.5371 174.972Z" stroke="white" stroke-width="2" stroke-miterlimit="10" stroke-linecap="round" stroke-linejoin="round"/>
<path d="M61.4742 177.245C61.8222 177.049 61.8318 176.406 61.4956 175.808C61.1594 175.21 60.6047 174.884 60.2567 175.079C59.9086 175.275 59.899 175.918 60.2352 176.516C60.5714 177.114 61.1261 177.44 61.4742 177.245Z" stroke="white" stroke-width="2" stroke-miterlimit="10" stroke-linecap="round" stroke-linejoin="round"/>
<path d="M155.499 127.613V136.673L155.042 136.934L147.197 132.404L155.499 127.613Z" fill="black" stroke="white" stroke-width="2" stroke-miterlimit="10" stroke-linecap="round" stroke-linejoin="round"/>
<path d="M162.61 103.874V132.569L159.099 134.596V101.848L162.61 103.874Z" fill="black" stroke="white" stroke-width="2" stroke-miterlimit="10" stroke-linecap="round" stroke-linejoin="round"/>
<path d="M29.4484 157.996C28.8831 158.78 27.7679 159.103 26.8258 158.557L5.3641 146.163C2.99528 144.798 1.53784 142.271 1.53784 139.534V134.938L6.82154 131.889L3.82591 138.645C2.74917 141.072 3.55672 143.898 5.69481 145.402C5.82556 145.494 5.964 145.582 6.11013 145.667L13.9857 150.216L26.9027 157.673C27.7102 158.138 28.6255 158.23 29.4484 157.996Z" fill="black" stroke="white" stroke-width="2" stroke-miterlimit="10" stroke-linecap="round" stroke-linejoin="round"/>
<path d="M77.4758 181.718V185.864" stroke="white" stroke-width="2" stroke-miterlimit="10" stroke-linecap="round" stroke-linejoin="round"/>
<path d="M72.0986 181.453L72.0217 181.495" stroke="white" stroke-width="2" stroke-miterlimit="10" stroke-linecap="round" stroke-linejoin="round"/>
<path d="M79.456 186.614C79.2791 186.956 79.033 187.233 78.7138 187.41C78.0447 187.783 77.1872 187.675 76.3296 187.194L76.195 187.114L67.7234 182.222L67.4927 182.088C66.6275 181.557 65.7699 180.657 65.12 179.5C63.7856 177.123 63.8202 174.574 65.2008 173.793C65.5699 173.585 65.9929 173.528 66.4429 173.593C65.8545 174.739 66.0699 176.677 67.0966 178.507C67.7465 179.665 68.604 180.569 69.4693 181.095L69.7 181.23L78.1755 186.122L78.3101 186.202C78.6946 186.421 79.0868 186.56 79.456 186.614Z" fill="black" stroke="white" stroke-width="2" stroke-miterlimit="10" stroke-linecap="round" stroke-linejoin="round"/>
<path d="M79.455 186.614C79.082 186.564 78.6936 186.421 78.309 186.202L78.1744 186.121L69.7028 181.23L69.4721 181.095C68.6069 180.565 67.7493 179.665 67.0994 178.507C66.0727 176.677 65.8573 174.739 66.4457 173.593C66.8341 173.658 67.2494 173.812 67.6609 174.054L76.344 179.065C77.2361 179.584 78.1245 180.507 78.7974 181.699C79.8203 183.529 80.0357 185.464 79.455 186.614Z" fill="black" stroke="white" stroke-width="2" stroke-miterlimit="10" stroke-linecap="round" stroke-linejoin="round"/>
<path d="M77.4867 181.722V185.771C77.4867 186.087 77.379 186.352 77.1752 186.487L77.0945 186.529L76.1254 187.071L73.8335 188.356C74.0412 188.221 74.145 187.96 74.145 187.64V183.591C74.145 183.226 74.0104 182.787 73.7451 182.372C73.2759 181.641 72.5568 181.253 72.103 181.449L75.364 179.623C75.8139 179.334 76.5869 179.726 77.0868 180.503C77.3521 180.918 77.4867 181.357 77.4867 181.722Z" fill="black" stroke="white" stroke-width="2" stroke-miterlimit="10" stroke-linecap="round" stroke-linejoin="round"/>
<path d="M74.1454 183.591V187.64C74.1454 187.96 74.0416 188.221 73.8339 188.356C73.384 188.644 72.611 188.252 72.1111 187.471C71.8458 187.056 71.7112 186.621 71.7112 186.256V182.207C71.7112 181.891 71.815 181.626 72.0227 181.491L72.1034 181.449C72.5572 181.249 73.2763 181.638 73.7454 182.372C74.0108 182.787 74.1454 183.23 74.1454 183.591Z" fill="black" stroke="white" stroke-width="2" stroke-miterlimit="10" stroke-linecap="round" stroke-linejoin="round"/>
<path d="M78.7176 187.41C78.06 187.779 77.214 187.675 76.368 187.21L76.195 187.11L76.1219 187.067L77.091 186.525L77.1717 186.483C77.3794 186.348 77.4832 186.087 77.4832 185.768V181.718C77.4832 181.353 77.3486 180.915 77.0795 180.499C76.5795 179.726 75.8066 179.33 75.3567 179.619L72.0957 181.445L72.0149 181.488C71.8073 181.622 71.7035 181.884 71.7035 182.203V183.691C71.5689 183.495 71.442 183.287 71.3189 183.072C69.9807 180.695 70.0153 178.138 71.3958 177.365C72.0803 176.981 72.9686 177.108 73.8569 177.627L76.3373 179.057C77.2294 179.576 78.1177 180.499 78.7907 181.695C80.1289 184.083 80.0943 186.633 78.7176 187.41Z" fill="black" stroke="white" stroke-width="2" stroke-miterlimit="10" stroke-linecap="round" stroke-linejoin="round"/>
<path d="M27.7251 154.385C27.4405 155.708 26.3138 156.588 25.1986 156.354C24.0911 156.115 23.4181 154.85 23.7027 153.527C23.9834 152.204 25.114 151.324 26.2253 151.558C27.3367 151.793 28.0097 153.058 27.7251 154.385Z" fill="black" stroke="white" stroke-width="2" stroke-miterlimit="10" stroke-linecap="round" stroke-linejoin="round"/>
<path d="M23.4877 151.962C23.2031 153.285 22.0764 154.166 20.9612 153.927C19.8537 153.689 19.1807 152.428 19.4614 151.101C19.746 149.778 20.8727 148.897 21.9879 149.132C23.1031 149.367 23.7722 150.64 23.4877 151.962Z" fill="black" stroke="white" stroke-width="2" stroke-miterlimit="10" stroke-linecap="round" stroke-linejoin="round"/>
<path d="M19.247 149.524C18.9625 150.847 17.8358 151.728 16.7244 151.489C15.6131 151.251 14.9401 149.989 15.2247 148.663C15.5092 147.34 16.636 146.459 17.7473 146.698C18.8587 146.936 19.5316 148.197 19.247 149.524Z" fill="black" stroke="white" stroke-width="2" stroke-miterlimit="10" stroke-linecap="round" stroke-linejoin="round"/>
<path d="M21.5698 144.083C21.2852 145.406 20.1585 146.286 19.0433 146.048C17.9281 145.809 17.2629 144.548 17.5397 143.221C17.8243 141.898 18.951 141.018 20.0662 141.256C21.1814 141.495 21.8467 142.76 21.5698 144.083Z" fill="black" stroke="white" stroke-width="2" stroke-miterlimit="10" stroke-linecap="round" stroke-linejoin="round"/>
<path d="M25.8225 146.521C25.5379 147.843 24.4112 148.724 23.296 148.489C22.1808 148.255 21.5155 146.99 21.7924 145.663C22.077 144.34 23.2037 143.46 24.3189 143.694C25.4341 143.929 26.1032 145.194 25.8225 146.521Z" fill="black" stroke="white" stroke-width="2" stroke-miterlimit="10" stroke-linecap="round" stroke-linejoin="round"/>
<path d="M30.6019 148.551L30.2366 149.401C30.2865 149.078 30.1404 148.755 29.8443 148.59L28.4792 147.801C28.3561 147.728 28.2254 147.701 28.0946 147.701H28.0908L27.4601 147.651L27.3678 147.644C27.2371 147.644 27.1063 147.675 26.991 147.732L27.4255 146.725C27.6562 146.179 28.3138 145.959 28.8253 146.256L30.0674 146.963C30.6288 147.278 30.8557 147.963 30.6019 148.551Z" fill="black" stroke="white" stroke-width="2" stroke-miterlimit="10" stroke-linecap="round" stroke-linejoin="round"/>
<path d="M29.6791 150.701C29.4215 151.162 28.8331 151.335 28.3678 151.07L27.1026 150.347C26.9642 150.266 26.845 150.166 26.7527 150.047C26.7681 150.062 26.7911 150.074 26.8065 150.085L28.0448 150.797C28.1717 150.87 28.3101 150.901 28.4524 150.893L29.01 150.943L29.1292 150.951C29.333 150.947 29.5368 150.854 29.6791 150.701Z" stroke="white" stroke-width="2" stroke-miterlimit="10" stroke-linecap="round" stroke-linejoin="round"/>
<path d="M29.6833 150.693C29.6987 150.666 29.7141 150.639 29.7257 150.608L30.2409 149.397" stroke="white" stroke-width="2" stroke-miterlimit="10" stroke-linecap="round" stroke-linejoin="round"/>
<path d="M29.4647 149.547L29.0764 150.447C29.0033 150.62 28.8687 150.751 28.711 150.82C28.6264 150.862 28.538 150.881 28.4495 150.889C28.3111 150.897 28.1688 150.862 28.0419 150.793L26.8037 150.082C26.7883 150.07 26.7652 150.062 26.7498 150.043C26.323 149.762 26.1538 149.212 26.3614 148.739L26.6268 148.116C26.7075 147.943 26.8344 147.809 26.9921 147.728C27.1075 147.67 27.2382 147.64 27.369 147.64L27.4612 147.647C27.5612 147.659 27.6612 147.69 27.7573 147.743L27.7843 147.755L29.1263 148.524C29.484 148.732 29.6263 149.17 29.4647 149.547Z" fill="black" stroke="white" stroke-width="2" stroke-miterlimit="10" stroke-linecap="round" stroke-linejoin="round"/>
<path d="M27.4612 147.647L27.3689 147.64" stroke="white" stroke-width="2" stroke-miterlimit="10" stroke-linecap="round" stroke-linejoin="round"/>
<path d="M164.409 89.75V128.09C164.382 131.22 162.713 134.112 160.006 135.677L81.4158 181.053V181.061L29.8209 151.274L35.1046 148.224L18.8536 138.841L10.555 134.05L6.82104 131.893L34.7431 115.772L37.7157 117.495C32.9781 122.091 30.2593 127.467 30.2593 133.212C30.2593 150.147 53.9321 163.879 83.1347 163.879C112.337 163.879 136.01 150.147 136.01 133.212C136.01 126.978 132.803 121.183 127.3 116.342L131.642 113.838L155.503 127.617L147.201 132.408L155.045 136.938L155.503 136.676L159.102 134.6L162.613 132.573V103.878L159.102 101.852L155.753 99.9175L159.802 97.5794C160.921 96.9334 161.875 96.0643 162.613 95.0529C163.628 93.6839 164.251 92.0381 164.386 90.2999C164.398 90.1115 164.409 89.9307 164.409 89.75Z" fill="black" stroke="white" stroke-width="2" stroke-miterlimit="10" stroke-linecap="round" stroke-linejoin="round"/>
<path d="M136.007 133.208C136.007 150.143 112.335 163.875 83.132 163.875C53.9294 163.875 30.2566 150.143 30.2566 133.208C30.2566 127.463 32.9754 122.087 37.713 117.491L41.0701 119.441L48.4342 123.705L50.1608 124.709L57.0558 128.701L59.7553 130.266L65.5005 133.596L73.9606 138.499L80.1441 142.083L81.4246 142.829L82.1861 142.391L90.6384 137.515L99.1485 132.596L105.843 128.732L107.582 127.728L114.969 123.463L116.138 122.79L123.867 118.329L127.297 116.345C132.8 121.179 136.007 126.974 136.007 133.208Z" fill="black" stroke="white" stroke-width="2" stroke-miterlimit="10" stroke-linecap="round" stroke-linejoin="round"/>
<path d="M85.9282 160.991C85.9321 160.991 85.9321 160.991 85.9359 160.991L91.5888 157.723L100.168 152.77L108.62 147.894L117.134 142.975L125.564 138.107H125.568L131.09 134.923" stroke="white" stroke-width="2" stroke-miterlimit="10" stroke-linecap="round" stroke-linejoin="round"/>
<path d="M70.6462 160.103L74.6802 157.776L83.1787 152.87L91.758 147.917L100.21 143.033L108.724 138.118H108.728L117.161 133.25L125.714 128.309L129.628 126.047" stroke="white" stroke-width="2" stroke-miterlimit="10" stroke-linecap="round" stroke-linejoin="round"/>
<path d="M58.4712 157.131L66.0199 152.774L74.5184 147.867L83.0938 142.91H83.0977L91.5501 138.034L100.068 133.119L108.501 128.251L117.053 123.31L124.56 118.979" stroke="white" stroke-width="2" stroke-miterlimit="10" stroke-linecap="round" stroke-linejoin="round"/>
<path d="M49.0422 152.885L57.6292 147.928L66.1277 143.021L74.707 138.068L83.1594 133.192H83.1632L91.6733 128.27L100.11 123.402L108.663 118.468L117.277 113.492" stroke="white" stroke-width="2" stroke-miterlimit="10" stroke-linecap="round" stroke-linejoin="round"/>
<path d="M41.6394 147.371L49.1535 143.033L57.652 138.126L66.2313 133.173L74.6798 128.293L83.1976 123.379L91.6308 118.51L100.183 113.573L107.801 109.173" stroke="white" stroke-width="2" stroke-miterlimit="10" stroke-linecap="round" stroke-linejoin="round"/>
<path d="M36.6169 140.514L40.697 138.153L49.1955 133.246L57.7748 128.293L66.231 123.417L74.7411 118.495H74.745L83.1743 113.626H83.1781L91.7266 108.689L96.0067 106.224" stroke="white" stroke-width="2" stroke-miterlimit="10" stroke-linecap="round" stroke-linejoin="round"/>
<path d="M34.991 131.473L40.5592 128.258L49.1385 123.305L57.5871 118.425H57.5909L66.1048 113.507L74.538 108.639L80.4216 105.243" stroke="white" stroke-width="2" stroke-miterlimit="10" stroke-linecap="round" stroke-linejoin="round"/>
<path d="M117.164 152.823C117.164 152.823 117.164 152.823 117.16 152.823L108.62 147.889L100.21 143.032L91.5495 138.033L83.1625 133.188H83.1586L74.6832 128.289L66.2308 123.412L57.5938 118.421H57.59L48.9299 113.422" stroke="white" stroke-width="2" stroke-miterlimit="10" stroke-linecap="round" stroke-linejoin="round"/>
<path d="M107.685 157.107L100.167 152.765L91.7574 147.916L83.0973 142.909H83.0935L74.7065 138.068L66.231 133.173L57.7748 128.293L49.1378 123.305L41.5737 118.94" stroke="white" stroke-width="2" stroke-miterlimit="10" stroke-linecap="round" stroke-linejoin="round"/>
<path d="M95.6559 160.072L91.5874 157.722L83.1773 152.869L74.5173 147.866L66.1264 143.021L57.651 138.126L49.1947 133.246L40.5578 128.258L36.52 125.928" stroke="white" stroke-width="2" stroke-miterlimit="10" stroke-linecap="round" stroke-linejoin="round"/>
<path d="M80.2588 160.991C80.2549 160.994 80.2549 160.994 80.2511 160.991L74.679 157.776L66.0151 152.773L57.6281 147.927L49.1526 143.032L40.6964 138.152L35.0012 134.864" stroke="white" stroke-width="2" stroke-miterlimit="10" stroke-linecap="round" stroke-linejoin="round"/>
<path d="M124.567 147.262L117.133 142.971L108.727 138.118H108.723L100.067 133.119L91.6723 128.269L83.1968 123.378L74.7444 118.494H74.7406L66.1036 113.507L58.478 109.107" stroke="white" stroke-width="2" stroke-miterlimit="10" stroke-linecap="round" stroke-linejoin="round"/>
<path d="M129.535 140.395L125.567 138.103H125.563L117.16 133.25L108.5 128.251L100.11 123.401L91.6302 118.51L83.1779 113.626H83.174L74.537 108.639L70.2993 106.189" stroke="white" stroke-width="2" stroke-miterlimit="10" stroke-linecap="round" stroke-linejoin="round"/>
<path d="M131.097 131.419L125.713 128.308L117.053 123.309L108.662 118.467L100.183 113.572L91.7268 108.688L85.7625 105.247" stroke="white" stroke-width="2" stroke-miterlimit="10" stroke-linecap="round" stroke-linejoin="round"/>
<path d="M136.007 133.207C136.007 150.143 112.335 163.875 83.132 163.875C53.9294 163.875 30.2566 150.143 30.2566 133.207C30.2566 127.462 32.9754 122.086 37.713 117.491C39.6588 115.599 41.9507 113.841 44.531 112.246C49.7071 109.035 56.0675 106.477 63.197 104.793C69.346 103.339 76.0794 102.54 83.1282 102.54C85.4086 102.54 87.6543 102.624 89.8578 102.786H89.8616C105.501 103.939 119.003 109.05 127.294 116.337C132.8 121.179 136.007 126.974 136.007 133.207Z" stroke="white" stroke-width="2" stroke-miterlimit="10" stroke-linecap="round" stroke-linejoin="round"/>
<path d="M131.19 133.123C131.19 133.723 131.155 134.323 131.09 134.915C130.886 136.799 130.363 138.63 129.536 140.391C128.41 142.833 126.725 145.136 124.564 147.259C122.503 149.289 120.011 151.154 117.162 152.816C117.162 152.816 117.161 152.816 117.158 152.816C114.331 154.461 111.147 155.907 107.682 157.099C103.968 158.388 99.9337 159.391 95.6575 160.064C92.5311 160.556 89.2817 160.868 85.9361 160.983C85.9323 160.983 85.9323 160.983 85.9284 160.983C84.9748 161.018 84.0172 161.033 83.0482 161.033C82.1137 161.033 81.1831 161.018 80.2602 160.983C80.2563 160.987 80.2563 160.987 80.2525 160.983C76.9492 160.88 73.7382 160.572 70.6465 160.095C66.3203 159.43 62.2287 158.422 58.4716 157.122C55.0299 155.938 51.8613 154.508 49.0425 152.881C46.1968 151.231 43.705 149.381 41.6399 147.366C39.4672 145.248 37.7598 142.948 36.6139 140.51C35.7525 138.695 35.2064 136.803 35.0026 134.861C34.9334 134.284 34.9065 133.703 34.9065 133.119C34.9065 132.565 34.9373 132.015 34.9911 131.469C35.1834 129.562 35.7025 127.708 36.5216 125.924C37.6599 123.44 39.3711 121.094 41.5707 118.937C43.6242 116.922 46.0969 115.072 48.9271 113.422C51.7728 111.765 54.9838 110.307 58.4793 109.108C62.1326 107.843 66.1011 106.858 70.2965 106.189C73.546 105.674 76.9338 105.347 80.4178 105.243C81.2908 105.212 82.1637 105.201 83.0443 105.201C83.9519 105.201 84.8594 105.212 85.7592 105.247C89.2855 105.358 92.7196 105.689 95.9998 106.224C100.191 106.9 104.152 107.9 107.798 109.173C111.266 110.381 114.447 111.834 117.273 113.492C120.073 115.13 122.522 116.972 124.553 118.979C126.771 121.159 128.494 123.536 129.625 126.047C130.405 127.778 130.905 129.573 131.094 131.419C131.163 131.981 131.19 132.554 131.19 133.123Z" stroke="white" stroke-width="2" stroke-miterlimit="10" stroke-linecap="round" stroke-linejoin="round"/>
<path d="M83.0898 154.046C102.973 154.046 119.091 144.697 119.091 133.165C119.091 121.633 102.973 112.284 83.0898 112.284C63.2068 112.284 47.0884 121.633 47.0884 133.165C47.0884 144.697 63.2068 154.046 83.0898 154.046Z" stroke="white" stroke-width="2" stroke-miterlimit="10" stroke-linecap="round" stroke-linejoin="round"/>
<path d="M83.1742 147.155C96.414 147.155 107.147 140.929 107.147 133.25C107.147 125.57 96.414 119.344 83.1742 119.344C69.9344 119.344 59.2014 125.57 59.2014 133.25C59.2014 140.929 69.9344 147.155 83.1742 147.155Z" stroke="white" stroke-width="2" stroke-miterlimit="10" stroke-linecap="round" stroke-linejoin="round"/>
<path d="M133.219 129.308C133.9 129.308 134.453 128.988 134.453 128.593C134.453 128.198 133.9 127.878 133.219 127.878C132.537 127.878 131.984 128.198 131.984 128.593C131.984 128.988 132.537 129.308 133.219 129.308Z" stroke="white" stroke-width="2" stroke-miterlimit="10" stroke-linecap="round" stroke-linejoin="round"/>
<path d="M128.317 147.19C128.998 147.19 129.551 146.87 129.551 146.475C129.551 146.08 128.998 145.759 128.317 145.759C127.635 145.759 127.082 146.08 127.082 146.475C127.082 146.87 127.635 147.19 128.317 147.19Z" stroke="white" stroke-width="2" stroke-miterlimit="10" stroke-linecap="round" stroke-linejoin="round"/>
<path d="M106.147 159.988C106.828 159.988 107.381 159.667 107.381 159.272C107.381 158.877 106.828 158.557 106.147 158.557C105.465 158.557 104.912 158.877 104.912 159.272C104.912 159.667 105.465 159.988 106.147 159.988Z" stroke="white" stroke-width="2" stroke-miterlimit="10" stroke-linecap="round" stroke-linejoin="round"/>
<path d="M75.1875 162.818C75.8693 162.818 76.4219 162.498 76.4219 162.103C76.4219 161.708 75.8693 161.388 75.1875 161.388C74.5058 161.388 73.9531 161.708 73.9531 162.103C73.9531 162.498 74.5058 162.818 75.1875 162.818Z" stroke="white" stroke-width="2" stroke-miterlimit="10" stroke-linecap="round" stroke-linejoin="round"/>
<path d="M47.2456 154.597C47.9274 154.597 48.48 154.276 48.48 153.881C48.48 153.486 47.9274 153.166 47.2456 153.166C46.5639 153.166 46.0112 153.486 46.0112 153.881C46.0112 154.276 46.5639 154.597 47.2456 154.597Z" stroke="white" stroke-width="2" stroke-miterlimit="10" stroke-linecap="round" stroke-linejoin="round"/>
<path d="M33.0252 138.476C33.7069 138.476 34.2596 138.156 34.2596 137.761C34.2596 137.366 33.7069 137.046 33.0252 137.046C32.3434 137.046 31.7908 137.366 31.7908 137.761C31.7908 138.156 32.3434 138.476 33.0252 138.476Z" stroke="white" stroke-width="2" stroke-miterlimit="10" stroke-linecap="round" stroke-linejoin="round"/>
<path d="M37.9287 120.606C38.6105 120.606 39.1631 120.286 39.1631 119.891C39.1631 119.496 38.6105 119.176 37.9287 119.176C37.247 119.176 36.6943 119.496 36.6943 119.891C36.6943 120.286 37.247 120.606 37.9287 120.606Z" stroke="white" stroke-width="2" stroke-miterlimit="10" stroke-linecap="round" stroke-linejoin="round"/>
<path d="M171.667 88.8653C170.86 91.0496 169.091 92.78 167.599 93.0108C166.087 93.2453 165.095 91.9071 165.445 89.7383C165.857 87.1733 167.918 84.5276 169.941 84.2815C171.932 84.0431 172.617 86.2965 171.667 88.8653Z" fill="black" stroke="white" stroke-width="2" stroke-miterlimit="10" stroke-linecap="round" stroke-linejoin="round"/>
<path d="M172.981 86.9195C172.485 87.1387 172.004 87.4886 171.566 87.927V87.9308C170.643 88.8384 169.889 90.1343 169.551 91.461C169.501 91.6571 169.458 91.8494 169.427 92.0455C169.366 92.4377 169.347 92.8031 169.37 93.1376L167.301 91.9686C167.301 91.9686 167.301 91.9686 167.297 91.9647C166.709 91.6186 166.401 90.7842 166.582 89.6459C166.893 87.7078 168.451 85.7043 169.981 85.5235C170.3 85.4851 170.573 85.5312 170.8 85.6466L170.927 85.7235L172.981 86.9195Z" fill="black" stroke="white" stroke-width="2" stroke-miterlimit="10" stroke-linecap="round" stroke-linejoin="round"/>
<path d="M159.1 101.847V134.596L155.501 136.672V100.055L155.751 99.9131L159.1 101.847Z" fill="black" stroke="white" stroke-width="2" stroke-miterlimit="10" stroke-linecap="round" stroke-linejoin="round"/>
<path d="M35.5213 149.051L34.3369 152.928L31.5681 151.328L35.5213 149.051Z" fill="black" stroke="white" stroke-width="2" stroke-miterlimit="10" stroke-linecap="round" stroke-linejoin="round"/>
<path d="M162.61 95.0488V103.874L159.099 101.848L155.749 99.9134L159.799 97.5753C160.918 96.9254 161.871 96.0602 162.61 95.0488Z" fill="black" stroke="white" stroke-width="2" stroke-miterlimit="10" stroke-linecap="round" stroke-linejoin="round"/>
<path d="M110.515 197.839C106.893 200.061 102.882 199.5 102.72 199.477C103.043 199.389 103.351 199.262 103.647 199.092L113.092 193.636L113.103 193.632C113.103 193.628 113.649 195.912 110.515 197.839Z" fill="black" stroke="white" stroke-width="2" stroke-miterlimit="10" stroke-linecap="round" stroke-linejoin="round"/>
<path d="M160.28 169.079C156.265 171.486 152.254 171.024 152.254 171.024L152.858 170.674L162.583 165.06C162.614 165.31 162.818 167.552 160.28 169.079Z" fill="black" stroke="white" stroke-width="2" stroke-miterlimit="10" stroke-linecap="round" stroke-linejoin="round"/>
<path d="M136.007 133.207C136.007 150.143 112.335 163.875 83.132 163.875C53.9294 163.875 30.2566 150.143 30.2566 133.207C30.2566 127.462 32.9754 122.086 37.713 117.491C39.6588 115.599 41.9507 113.841 44.531 112.246C49.7071 109.035 56.0675 106.477 63.197 104.793C69.346 103.339 76.0794 102.54 83.1282 102.54C85.4086 102.54 87.6543 102.624 89.8578 102.786H89.8616C105.501 103.939 119.003 109.05 127.294 116.337C132.8 121.179 136.007 126.974 136.007 133.207Z" fill="black" stroke="#00B26E" stroke-width="2" stroke-miterlimit="10" stroke-linecap="round" stroke-linejoin="round"/>
<path d="M101.798 124.559L83.6667 135.053L65.5391 124.478L83.5898 113.98L101.798 124.559Z" fill="black" stroke="#00B26E" stroke-width="2" stroke-miterlimit="10" stroke-linecap="round" stroke-linejoin="round"/>
<path d="M105.775 132.908L83.51 145.629L83.6677 135.053L101.799 124.559L105.775 132.908Z" fill="black" stroke="#00B26E" stroke-width="2" stroke-miterlimit="10" stroke-linecap="round" stroke-linejoin="round"/>
<path d="M83.6672 135.054L83.5096 145.629L61.4019 132.908L65.5396 124.479L83.6672 135.054Z" fill="black" stroke="#00B26E" stroke-width="2" stroke-miterlimit="10" stroke-linecap="round" stroke-linejoin="round"/>
<path d="M164.371 47.9995L104.217 82.905L23.1421 36.0862L83.2971 1.18457L164.371 47.9995Z" fill="black" stroke="white" stroke-width="2" stroke-miterlimit="10" stroke-linecap="round" stroke-linejoin="round"/>
<path d="M164.413 89.5657C164.413 89.6234 164.413 89.6888 164.409 89.7464C164.409 89.9272 164.401 90.1118 164.382 90.2925C164.247 92.0307 163.624 93.6765 162.609 95.0455C161.867 96.0569 160.917 96.9221 159.798 97.572L155.749 99.9101L155.499 100.052L131.638 113.831L127.296 116.334L123.866 118.318L116.137 122.779L114.968 123.452L107.58 127.717L105.842 128.72L99.1472 132.585L90.6371 137.504L82.1847 142.38L81.4233 142.818V115.292L101.639 85.2972C102.304 84.3128 103.185 83.4898 104.212 82.8938L164.367 47.9883L164.401 79.1829L164.405 85.5972L164.413 89.5657Z" fill="black" stroke="white" stroke-width="2" stroke-miterlimit="10" stroke-linecap="round" stroke-linejoin="round"/>
<path d="M104.216 82.9047C103.189 83.5008 102.309 84.3199 101.643 85.3082L20.5652 38.4932C21.2305 37.5088 22.1111 36.6858 23.1417 36.0859L104.216 82.9047Z" fill="black" stroke="white" stroke-width="2" stroke-miterlimit="10" stroke-linecap="round" stroke-linejoin="round"/>
<path d="M101.643 85.3081L81.427 115.303L0.44873 68.6226L20.5645 38.4932L101.643 85.3081Z" fill="black" stroke="white" stroke-width="2" stroke-miterlimit="10" stroke-linecap="round" stroke-linejoin="round"/>
<path d="M81.4274 115.303V142.829L80.1469 142.083V137.173C80.1469 137.007 80.1431 136.842 80.1315 136.677C80.1238 136.55 80.1123 136.427 80.0969 136.3C80.0892 136.242 80.0815 136.177 80.07 136.119C80.0661 136.104 80.0661 136.081 80.0623 136.065C80.0508 135.961 80.0277 135.854 80.0085 135.746C79.9777 135.6 79.9431 135.454 79.9085 135.315C79.8969 135.242 79.8739 135.173 79.8508 135.104C79.8046 134.915 79.7393 134.731 79.6701 134.55C79.5816 134.319 79.4855 134.089 79.374 133.869C79.3201 133.754 79.2586 133.643 79.1932 133.527C79.1625 133.473 79.1355 133.423 79.1048 133.37C79.0432 133.258 78.9779 133.154 78.9048 133.05C78.8241 132.927 78.7394 132.808 78.651 132.693C78.5433 132.554 78.4395 132.416 78.3203 132.285C78.2165 132.162 78.1049 132.043 77.9896 131.931C77.8742 131.816 77.7589 131.708 77.6358 131.597C77.6281 131.589 77.6204 131.581 77.6127 131.578C77.4974 131.481 77.382 131.381 77.2589 131.289C77.1474 131.201 77.0321 131.116 76.9128 131.039C76.759 130.928 76.6052 130.832 76.4437 130.739L73.4519 129.005L65.0649 124.144L65.0187 124.117L56.4279 119.134L56.3933 119.118L47.7756 114.123L44.5377 112.25L4.61382 89.1157C3.00256 88.1812 0.987526 89.3425 0.987526 91.1999V96.2106L0.445312 95.8991V68.623L81.4274 115.303Z" fill="black" stroke="white" stroke-width="2" stroke-miterlimit="10" stroke-linecap="round" stroke-linejoin="round"/>
<path d="M80.1462 137.173V142.083L73.9627 138.499L65.5026 133.596L59.7575 130.266L57.0579 128.701L50.163 124.71L48.4364 123.706L41.0722 119.441L37.7151 117.492L34.7426 115.769L33.5928 115.104L29.8242 112.915V108.255C29.8242 107.778 29.7742 107.309 29.6704 106.851C29.282 105.04 28.1476 103.456 26.5094 102.506L4.39013 89.6848C4.0748 89.5002 3.72871 89.4233 3.40569 89.4272C2.42894 89.4464 1.53678 90.2347 1.53678 91.3307V96.5259L0.990723 96.2106V91.1999C0.990723 89.3426 3.00576 88.1812 4.61702 89.1157L44.537 112.25L47.7749 114.123L56.3927 119.118L56.4273 119.134L65.0181 124.117L65.0642 124.144L73.4512 129.005L76.443 130.739C76.6045 130.832 76.7584 130.932 76.9122 131.039C77.0314 131.116 77.1506 131.201 77.2583 131.289C77.3813 131.381 77.5005 131.478 77.6121 131.578C77.6159 131.581 77.6236 131.589 77.6351 131.597C77.7582 131.708 77.8774 131.816 77.9889 131.931C78.1043 132.047 78.212 132.166 78.3196 132.285C78.4388 132.416 78.5427 132.55 78.6503 132.693C78.7388 132.812 78.8234 132.931 78.9042 133.05C78.9772 133.15 79.0387 133.258 79.1041 133.37C79.1349 133.42 79.1618 133.47 79.1926 133.527C79.2618 133.643 79.3195 133.754 79.3733 133.869C79.4848 134.089 79.581 134.319 79.6694 134.55C79.7386 134.731 79.7963 134.919 79.8501 135.104C79.8694 135.177 79.8924 135.242 79.9078 135.315C79.9463 135.454 79.9809 135.6 80.0078 135.746C80.027 135.854 80.0501 135.958 80.0616 136.065C80.0655 136.081 80.0655 136.104 80.0693 136.119C80.077 136.177 80.0847 136.238 80.0963 136.3C80.1078 136.427 80.1232 136.55 80.1309 136.677C80.1424 136.842 80.1462 137.007 80.1462 137.173Z" fill="black" stroke="white" stroke-width="2" stroke-miterlimit="10" stroke-linecap="round" stroke-linejoin="round"/>
<path d="M29.6665 106.855L6.96278 93.6993L3.40186 89.4308C3.72872 89.427 4.07097 89.5039 4.3863 89.6884L26.5055 102.509C28.1437 103.459 29.2781 105.043 29.6665 106.855Z" fill="black" stroke="white" stroke-width="2" stroke-miterlimit="10" stroke-linecap="round" stroke-linejoin="round"/>
<path d="M6.96767 93.6992L1.53784 96.5294V91.3342C1.53784 90.2382 2.42999 89.4499 3.40675 89.4307L6.96767 93.6992Z" fill="black" stroke="white" stroke-width="2" stroke-miterlimit="10" stroke-linecap="round" stroke-linejoin="round"/>
<path d="M78.7164 139.43C77.9972 139.837 77.0551 139.676 76.1283 139.091L77.0936 138.549L77.1743 138.507C77.382 138.372 77.4858 138.111 77.4858 137.792V133.746C77.4858 133.381 77.3512 132.942 77.082 132.527C76.5821 131.754 75.8092 131.358 75.3592 131.647L72.8174 133.073C72.8328 132.043 73.1904 131.212 73.8749 130.827C75.2554 130.055 77.455 131.35 78.7894 133.731C80.1276 136.1 80.0892 138.657 78.7164 139.43Z" fill="black" stroke="white" stroke-width="2" stroke-miterlimit="10" stroke-linecap="round" stroke-linejoin="round"/>
<path d="M77.4863 133.746V137.795C77.4863 138.115 77.3786 138.376 77.1748 138.511L77.094 138.553L76.1288 139.095L73.8331 140.38C74.0407 140.245 74.1446 139.983 74.1446 139.664V135.615C74.1446 135.25 74.01 134.811 73.7446 134.396C73.487 134 73.1601 133.704 72.8409 133.55C72.5756 133.415 72.3103 133.385 72.1064 133.473L72.8256 133.069L75.3674 131.643C75.8173 131.354 76.5903 131.746 77.0902 132.523C77.3517 132.942 77.4863 133.381 77.4863 133.746Z" fill="black" stroke="white" stroke-width="2" stroke-miterlimit="10" stroke-linecap="round" stroke-linejoin="round"/>
<path d="M74.1437 135.615V139.665C74.1437 139.98 74.0398 140.245 73.8322 140.38C73.3823 140.668 72.6093 140.276 72.1094 139.495C71.8441 139.08 71.7095 138.646 71.7095 138.28V134.231C71.7095 133.916 71.8133 133.65 72.021 133.516L72.1017 133.473C72.3094 133.385 72.5709 133.416 72.8362 133.55C73.1592 133.704 73.4822 134 73.7399 134.396C74.0091 134.812 74.1437 135.25 74.1437 135.615Z" fill="black" stroke="white" stroke-width="2" stroke-miterlimit="10" stroke-linecap="round" stroke-linejoin="round"/>
<path d="M45.3484 120.602V118.776L45.4714 118.849L46.0675 120.941L46.1444 120.987L46.7597 119.591L46.8635 119.653V121.479" fill="black"/>
<path d="M45.3484 120.602V118.776L45.4714 118.849L46.0675 120.941L46.1444 120.987L46.7597 119.591L46.8635 119.653V121.479" stroke="white" stroke-width="2" stroke-miterlimit="10" stroke-linecap="round" stroke-linejoin="round"/>
<path d="M47.9563 120.283V121.587C47.9563 121.587 47.9871 122.164 48.4024 122.402C48.8177 122.644 48.8446 122.133 48.8446 122.133V120.795" fill="black"/>
<path d="M47.9563 120.283V121.587C47.9563 121.587 47.9871 122.164 48.4024 122.402C48.8177 122.644 48.8446 122.133 48.8446 122.133V120.795" stroke="white" stroke-width="2" stroke-miterlimit="10" stroke-linecap="round" stroke-linejoin="round"/>
<path d="M49.9517 121.433V123.256L50.5862 123.625" fill="black"/>
<path d="M49.9517 121.433V123.256L50.5862 123.625" stroke="white" stroke-width="2" stroke-miterlimit="10" stroke-linecap="round" stroke-linejoin="round"/>
<path d="M51.6328 124.229V122.402" stroke="white" stroke-width="2" stroke-miterlimit="10" stroke-linecap="round" stroke-linejoin="round"/>
<path d="M51.2168 122.16L52.0397 122.637" stroke="white" stroke-width="2" stroke-miterlimit="10" stroke-linecap="round" stroke-linejoin="round"/>
<path d="M52.9927 123.167V125.017" stroke="white" stroke-width="2" stroke-miterlimit="10" stroke-linecap="round" stroke-linejoin="round"/>
<path d="M54.0923 125.652V123.813C54.0923 123.813 54.2961 123.929 54.5691 124.087C54.8422 124.244 54.9575 124.563 54.9575 124.833C54.9575 125.102 54.8114 125.263 54.596 125.14L54.0923 124.848" fill="black"/>
<path d="M54.0923 125.652V123.813C54.0923 123.813 54.2961 123.929 54.5691 124.087C54.8422 124.244 54.9575 124.563 54.9575 124.833C54.9575 125.102 54.8114 125.263 54.596 125.14L54.0923 124.848" stroke="white" stroke-width="2" stroke-miterlimit="10" stroke-linecap="round" stroke-linejoin="round"/>
<path d="M55.9355 124.878V126.717L56.5624 127.078" fill="black"/>
<path d="M55.9355 124.878V126.717L56.5624 127.078" stroke="white" stroke-width="2" stroke-miterlimit="10" stroke-linecap="round" stroke-linejoin="round"/>
<path d="M57.5234 125.794V127.636" stroke="white" stroke-width="2" stroke-miterlimit="10" stroke-linecap="round" stroke-linejoin="round"/>
<path d="M59.3813 126.866L58.6506 126.443V128.285L59.3813 128.708" fill="black"/>
<path d="M59.3813 126.866L58.6506 126.443V128.285L59.3813 128.708" stroke="white" stroke-width="2" stroke-miterlimit="10" stroke-linecap="round" stroke-linejoin="round"/>
<path d="M59.3813 127.79L58.6506 127.367" stroke="white" stroke-width="2" stroke-miterlimit="10" stroke-linecap="round" stroke-linejoin="round"/>
<path d="M60.4456 129.328V127.482C60.4456 127.482 60.6686 127.613 60.8762 127.732C61.0839 127.851 61.3762 128.197 61.3762 128.586C61.3762 128.97 61.1493 129.016 60.8839 128.862L61.2531 129.797" fill="black"/>
<path d="M60.4456 129.328V127.482C60.4456 127.482 60.6686 127.613 60.8762 127.732C61.0839 127.851 61.3762 128.197 61.3762 128.586C61.3762 128.97 61.1493 129.016 60.8839 128.862L61.2531 129.797" stroke="white" stroke-width="2" stroke-miterlimit="10" stroke-linecap="round" stroke-linejoin="round"/>
<path d="M133.011 70.2842C130.693 71.0225 128.424 71.9493 126.366 73.2452C125.028 74.0912 124.817 75.6525 125.082 76.1793C125.49 76.9907 126.124 76.66 127.809 75.6756C128.501 75.3025 131.908 73.4875 136.715 72.8683" stroke="white" stroke-width="2" stroke-miterlimit="10" stroke-linecap="round" stroke-linejoin="round"/>
<path d="M177.142 92.0727C176.342 94.2262 174.6 95.9297 173.127 96.1604C172.666 96.2335 172.254 96.1566 171.916 95.9489C171.666 95.8028 171.454 95.5836 171.289 95.3029C170.962 94.7415 170.839 93.93 171.001 92.9379C171.408 90.4076 173.439 87.8003 175.434 87.5581C175.508 87.5504 175.573 87.5465 175.642 87.5465C175.988 87.5312 176.288 87.6004 176.542 87.7427C177.619 88.3118 177.869 90.0961 177.142 92.0727Z" fill="black" stroke="white" stroke-width="2" stroke-miterlimit="10" stroke-linecap="round" stroke-linejoin="round"/>
<path d="M115.877 53.1911C115.654 53.0796 115.385 53.0334 115.073 53.0719C115.039 53.0757 115.012 53.0796 114.977 53.0834C113.508 53.3372 112.047 55.2484 111.751 57.1058C111.655 57.7019 111.697 58.2133 111.847 58.6171C111.966 58.944 112.159 59.1939 112.405 59.3516L110.851 58.4556C110.305 58.1056 110.028 57.3019 110.201 56.2098C110.24 55.9637 110.301 55.7138 110.378 55.4676C110.624 54.7024 111.047 53.9602 111.555 53.3795C112.139 52.7181 112.835 52.2528 113.528 52.1759C113.839 52.1374 114.108 52.1836 114.331 52.299L114.458 52.372L115.877 53.1911Z" fill="black" stroke="white" stroke-width="2" stroke-miterlimit="10" stroke-linecap="round" stroke-linejoin="round"/>
<path d="M25.9996 1.31155C25.7842 1.20003 25.5304 1.15389 25.2305 1.1885C25.219 1.18465 25.2113 1.1885 25.1959 1.1885C23.7 1.36923 22.1772 3.33043 21.8657 5.22241C21.758 5.88768 21.8234 6.44528 22.0195 6.86059C22.1387 7.12208 22.3079 7.32974 22.5194 7.46433L21.2773 6.74523L21.1927 6.69908C20.6159 6.36068 20.3198 5.54543 20.5006 4.43024C20.8043 2.53442 22.3272 0.577063 23.8269 0.396325C24.1807 0.354025 24.4806 0.415553 24.7229 0.569372L24.7575 0.588599L25.9996 1.31155Z" fill="black" stroke="white" stroke-width="2" stroke-miterlimit="10" stroke-linecap="round" stroke-linejoin="round"/>
<path d="M110.992 50.3763C110.769 50.261 110.5 50.2148 110.188 50.2533C108.692 50.434 107.169 52.3952 106.862 54.2872C106.689 55.3755 106.966 56.1792 107.515 56.533L25.8757 9.40266L25.7488 9.3296L25.7411 9.32575C25.2028 8.96428 24.9297 8.16826 25.1028 7.08768C25.1297 6.92232 25.1643 6.75697 25.2143 6.59161C25.4643 5.65331 25.9872 4.73809 26.6371 4.06897C27.1793 3.51138 27.81 3.12683 28.4291 3.04992C28.7406 3.01146 29.0098 3.05761 29.2328 3.17297L29.3636 3.24988L29.3674 3.25373L110.992 50.3763Z" fill="black" stroke="white" stroke-width="2" stroke-miterlimit="10" stroke-linecap="round" stroke-linejoin="round"/>
<path d="M115.938 53.226C115.919 53.2145 115.896 53.2068 115.881 53.1914" stroke="white" stroke-width="2" stroke-miterlimit="10" stroke-linecap="round" stroke-linejoin="round"/>
<path d="M176.547 87.7314V87.7352C176.293 87.5968 175.993 87.5237 175.647 87.5391C175.578 87.5391 175.513 87.543 175.439 87.5506C173.444 87.7929 171.413 90.4002 171.006 92.9305C170.844 93.9188 170.967 94.734 171.294 95.2955C171.459 95.58 171.671 95.7954 171.921 95.9415L171.917 95.9454L170.471 95.1263L170.421 95.0993V95.0955C169.825 94.784 169.437 94.088 169.375 93.1343C169.352 92.7997 169.371 92.4344 169.433 92.0422C169.444 91.9576 169.464 91.873 169.479 91.7884C169.498 91.6769 169.525 91.5692 169.556 91.4577C169.894 90.131 170.648 88.835 171.571 87.9275V87.9237C171.659 87.8391 171.748 87.7545 171.836 87.6775C172.202 87.3507 172.59 87.093 172.986 86.9161C173.278 86.7854 173.571 86.697 173.867 86.6623C174.32 86.6085 174.705 86.6854 175.013 86.87L175.016 86.8662L176.547 87.7314Z" fill="black" stroke="white" stroke-width="2" stroke-miterlimit="10" stroke-linecap="round" stroke-linejoin="round"/>
<path d="M147.56 73.3412C147.486 73.6911 147.386 74.0603 147.248 74.4333C146.798 75.6446 146.056 76.7137 145.225 77.4597C144.579 78.0442 143.883 78.4249 143.237 78.5249C142.826 78.5903 142.46 78.5364 142.141 78.3826L141.98 78.2903C141.745 78.1442 141.553 77.9327 141.399 77.6635C141.072 77.0982 140.949 76.283 141.107 75.2985C141.518 72.7721 143.545 70.1648 145.541 69.9226C145.614 69.9149 145.683 69.911 145.752 69.911C146.083 69.8956 146.371 69.9572 146.614 70.0802L146.64 70.0956C147.521 70.5532 147.856 71.8222 147.56 73.3412Z" fill="black" stroke="white" stroke-width="2" stroke-miterlimit="10" stroke-linecap="round" stroke-linejoin="round"/>
<path d="M143.225 69.3268L143.129 69.2729" stroke="white" stroke-width="2" stroke-miterlimit="10" stroke-linecap="round" stroke-linejoin="round"/>
<path d="M143.129 69.2729C142.66 69.4728 142.202 69.7882 141.779 70.1919C140.779 71.1341 139.964 72.53 139.629 73.949C139.591 74.1066 139.56 74.2566 139.537 74.4143C139.48 74.795 139.456 75.1449 139.48 75.4718L137.484 74.3451C136.903 73.9951 136.603 73.1645 136.784 72.0339C137.095 70.092 138.653 68.0923 140.183 67.9116C140.529 67.8693 140.822 67.9269 141.06 68.0654L143.129 69.2729Z" stroke="white" stroke-width="2" stroke-miterlimit="10" stroke-linecap="round" stroke-linejoin="round"/>
<path d="M139.556 75.5139L139.475 75.4678" stroke="white" stroke-width="2" stroke-miterlimit="10" stroke-linecap="round" stroke-linejoin="round"/>
<path d="M141.956 70.0269C141.899 70.0769 141.837 70.1346 141.78 70.1884C140.78 71.1306 139.965 72.5265 139.63 73.9455C139.618 74.0032 139.599 74.0647 139.592 74.1224H139.588L114.265 59.1557C115.103 58.6404 115.915 57.6406 116.349 56.4601C116.53 55.9717 116.63 55.5025 116.653 55.0757L141.956 70.0269Z" fill="black" stroke="white" stroke-width="2" stroke-miterlimit="10" stroke-linecap="round" stroke-linejoin="round"/>
<path d="M171.833 87.6816C171.744 87.7585 171.656 87.8431 171.567 87.9277V87.9315C170.645 88.8391 169.891 90.135 169.552 91.4617C169.522 91.5732 169.499 91.6809 169.475 91.7924L145.226 77.4564C146.056 76.7104 146.799 75.6413 147.249 74.43C147.387 74.057 147.491 73.6878 147.56 73.3379L171.833 87.6816Z" fill="black" stroke="white" stroke-width="2" stroke-miterlimit="10" stroke-linecap="round" stroke-linejoin="round"/>
<path d="M146.617 70.0768C146.37 69.9537 146.082 69.8922 145.755 69.9076C145.686 69.9076 145.617 69.9114 145.544 69.9191C143.548 70.1614 141.521 72.7686 141.11 75.2951C140.952 76.2795 141.075 77.0948 141.402 77.6601C141.556 77.9254 141.748 78.1369 141.983 78.2869L140.575 77.4909L140.548 77.4793C139.929 77.1678 139.533 76.4564 139.479 75.472C139.46 75.1451 139.479 74.7952 139.537 74.4145C139.552 74.3183 139.572 74.2222 139.591 74.1261C139.599 74.0684 139.618 74.0069 139.629 73.9492C139.964 72.5302 140.779 71.1343 141.779 70.1921C141.837 70.1383 141.898 70.0806 141.956 70.0306C142.329 69.7038 142.721 69.4461 143.129 69.2731C143.409 69.1462 143.686 69.0654 143.971 69.0308C144.386 68.9808 144.74 69.0385 145.036 69.1885L145.067 69.2038L146.617 70.0768Z" fill="black" stroke="white" stroke-width="2" stroke-miterlimit="10" stroke-linecap="round" stroke-linejoin="round"/>
<path d="M116.657 55.0793C116.63 55.5062 116.534 55.9753 116.353 56.4637C115.918 57.6443 115.103 58.6403 114.269 59.1594C113.961 59.3555 113.642 59.4863 113.346 59.5324C113.004 59.5862 112.7 59.5286 112.45 59.3824L112.408 59.3555C112.161 59.194 111.969 58.9441 111.85 58.621C111.696 58.2173 111.654 57.7058 111.754 57.1098C112.05 55.2524 113.515 53.3412 114.98 53.0874C115.015 53.0835 115.046 53.0797 115.076 53.0758C115.388 53.0374 115.657 53.0835 115.88 53.1951C115.895 53.2066 115.918 53.2143 115.938 53.2297C116.457 53.5296 116.707 54.2218 116.657 55.0793Z" fill="black" stroke="white" stroke-width="2" stroke-miterlimit="10" stroke-linecap="round" stroke-linejoin="round"/>
<path d="M114.33 52.2988C114.107 52.1835 113.838 52.1373 113.526 52.1758C112.838 52.2565 112.138 52.7218 111.553 53.3794C111.046 53.9639 110.623 54.7023 110.377 55.4675C110.3 55.7136 110.238 55.9636 110.2 56.2097C110.027 57.3018 110.304 58.1055 110.85 58.4555L107.516 56.5327C106.966 56.1789 106.685 55.3752 106.862 54.287C107.166 52.3911 108.688 50.4338 110.188 50.253C110.5 50.2146 110.769 50.2607 110.992 50.3761L111.119 50.4492L114.33 52.2988Z" fill="black" stroke="white" stroke-width="2" stroke-miterlimit="10" stroke-linecap="round" stroke-linejoin="round"/>
<path d="M29.2291 3.17671C29.0061 3.06134 28.7369 3.01519 28.4254 3.05365C27.8024 3.13056 27.1718 3.51511 26.6334 4.0727C25.9874 4.74182 25.4605 5.6532 25.2106 6.59534C25.1644 6.7607 25.126 6.92606 25.0991 7.09141C24.926 8.17199 25.1991 8.96801 25.7374 9.32949L22.6418 7.54133L22.5149 7.46827C22.3034 7.33368 22.1342 7.12602 22.015 6.86453C21.8189 6.44922 21.7573 5.89162 21.8612 5.22635C22.1688 3.33052 23.6916 1.37317 25.1914 1.19243C25.2029 1.19243 25.2106 1.18859 25.226 1.19243C25.5259 1.15782 25.7797 1.20397 25.9951 1.31549L26.1258 1.3924L29.2291 3.17671Z" fill="black" stroke="white" stroke-width="2" stroke-miterlimit="10" stroke-linecap="round" stroke-linejoin="round"/>
<path d="M112.447 59.3824L112.405 59.3555" stroke="white" stroke-width="2" stroke-miterlimit="10" stroke-linecap="round" stroke-linejoin="round"/>
</g>
<defs>
<clipPath id="clip0">
<rect width="177.938" height="200" fill="white"/>
</clipPath>
</defs>
</svg>
