<svg width="24" height="24" viewBox="0 0 24 24" fill="none" xmlns="http://www.w3.org/2000/svg">
<path fill-rule="evenodd" clip-rule="evenodd" d="M13.6668 7.3132C12.6192 7.6944 11.9572 8.67758 12.0324 9.7536L12.0576 10.1688L11.6384 10.118C10.1132 9.92317 8.7804 9.26242 7.6488 8.15197L7.0956 7.60118L6.9532 8.00798C6.6516 8.9148 6.8444 9.8724 7.47281 10.5164C7.80803 10.8724 7.73242 10.9232 7.1544 10.7112C6.95321 10.6436 6.7772 10.5928 6.7604 10.618C6.702 10.6776 6.9028 11.4484 7.062 11.7536C7.28 12.1776 7.72402 12.5924 8.2104 12.8384L8.62117 13.0332L8.13517 13.0416C7.66598 13.0416 7.64918 13.05 7.69957 13.2284C7.8672 13.7792 8.52922 14.364 9.26678 14.6184L9.78638 14.796L9.33397 15.0672C8.66362 15.4576 7.8756 15.6776 7.0876 15.694C6.71 15.7024 6.4 15.7364 6.4 15.762C6.4 15.8464 7.4228 16.3208 8.01757 16.5076C9.8028 17.0584 11.9236 16.8208 13.516 15.8804C14.6476 15.2108 15.7788 13.8804 16.3072 12.592C16.5924 11.906 16.8772 10.6516 16.8772 10.0504C16.8772 9.66038 16.9024 9.6096 17.3716 9.14363C17.6484 8.87243 17.908 8.57603 17.9584 8.4912C18.0424 8.33002 18.0336 8.33003 17.6064 8.47403C16.894 8.72843 16.7932 8.69438 17.1456 8.31322C17.4052 8.04202 17.7156 7.5504 17.7156 7.4064C17.7156 7.3812 17.59 7.4232 17.4472 7.4996C17.2964 7.58437 16.9612 7.71158 16.7096 7.78763L16.2572 7.932L15.8464 7.65202C15.62 7.4996 15.302 7.33 15.134 7.2792C14.7064 7.1608 14.0524 7.1776 13.6668 7.3132ZM12 24C5.3728 24 0 18.6272 0 12C0 5.3724 5.3728 0 12 0C18.6272 0 24 5.3724 24 12C24 18.6272 18.6272 24 12 24Z" fill="#FDD32F"/>
</svg>
